<svg width="814" height="1183" viewBox="0 0 814 1183" fill="none" xmlns="http://www.w3.org/2000/svg">
<g clip-path="url(#clip0_53_25)">
<path d="M555.8 1018.9C557 1014.5 557.2 1009.4 558.1 1005C559.8 995.7 561.7 986.5 563.7 977.2C567.5 959.3 571.6 941.5 574.8 923.5C588.4 847.2 586.3 769.6 566 694.5C554.9 653.5 538.2 613.5 517.5 576.3C503.4 551 465.4 540.7 440.3 556.5C414 573.1 404.9 604.8 420.1 631.9C424.1 639.1 427.9 646.3 431.6 653.6C433.7 657.8 435.7 662 437.6 666.3C437.9 667 438.2 667.7 438.5 668.4C438.6 668.7 438.7 668.9 438.8 669.2C445 685 450.7 700.8 455.4 717.1C460.2 733.9 464 751 466.9 768.2C467 768.8 467.1 769.5 467.2 770.1C467.3 773.7 468.2 777.6 468.6 781.2C469.5 789.9 470.2 798.6 470.6 807.3C471.4 824.7 471.3 842.2 470.1 859.6C469.6 867.1 468.8 874.6 468 882.1C467.9 883.1 467.7 884 467.6 885C466.7 890.6 465.7 896.2 464.7 901.7C457.1 941.6 447.2 980.8 442.9 1021.3C438 1067.6 444.9 1113 465 1155.2C470.6 1167 486.3 1177.2 498.7 1180.5C512.2 1184.1 530.2 1182.5 542.2 1174.9C568.9 1158.1 575.3 1129.7 563.8 1102.5C563.9 1102.8 563.9 1103 564 1103.3C563.9 1102.9 563.8 1102.5 563.7 1102.1C563.3 1101.2 562.9 1100.4 562.5 1099.5C561.9 1098.2 561.6 1097.1 561.5 1096.4C560.4 1093.3 559.4 1090.1 558.6 1087C557.4 1082.6 556.4 1078.1 555.5 1073.7C555.4 1073.1 555.3 1072.5 555.2 1071.9C555.2 1071.7 555.2 1071.6 555.2 1071.4C554.1 1054.6 554.1 1038.1 555.9 1021.3C555.6 1020.5 555.7 1019.7 555.8 1018.9Z" fill="white"/>
<path d="M563.3 1102.2C563.4 1102.3 563.4 1102.5 563.5 1102.6C562 1096.1 561 1095.2 561.2 1096.6C561.4 1097.3 561.6 1097.9 561.9 1098.6C562.3 1099.7 562.9 1100.9 563.3 1102.2Z" fill="white"/>
<path d="M260.5 1021.3C262.3 1038 262.3 1054.6 261.2 1071.4C261.2 1071.6 261.2 1071.8 261.2 1071.9C261.1 1072.5 261 1073.1 260.9 1073.7C260.1 1078.2 259.1 1082.6 257.8 1087C256.9 1090.2 255.9 1093.3 254.9 1096.4C254.8 1097 254.5 1098.2 253.9 1099.5C253.5 1100.4 253.1 1101.2 252.7 1102.1C252.6 1102.5 252.4 1102.9 252.4 1103.3C252.5 1103 252.5 1102.8 252.6 1102.5C241.1 1129.7 247.4 1158.1 274.2 1174.9C286.2 1182.4 304.2 1184.1 317.7 1180.5C330.1 1177.2 345.8 1167 351.4 1155.2C371.4 1113 378.3 1067.6 373.5 1021.3C369.2 980.8 359.3 941.6 351.7 901.7C350.6 896.1 349.6 890.6 348.8 885C348.6 884.1 348.5 883.1 348.4 882.1C347.6 874.6 346.8 867.1 346.3 859.6C345.1 842.2 345 824.7 345.8 807.3C346.2 798.6 346.9 789.9 347.8 781.2C348.2 777.6 349.1 773.8 349.2 770.1C349.3 769.5 349.4 768.8 349.5 768.2C352.4 751 356.2 733.9 361 717.1C365.7 700.8 371.4 685 377.6 669.2C377.7 668.9 377.8 668.6 377.9 668.4C378.2 667.7 378.5 667 378.8 666.3C380.7 662.1 382.7 657.8 384.8 653.6C388.4 646.3 392.3 639 396.3 631.9C411.4 604.8 402.4 573.1 376.1 556.5C351 540.7 313 550.9 298.9 576.3C278.1 613.5 261.4 653.5 250.4 694.5C230.2 769.6 228 847.2 241.6 923.5C244.8 941.5 248.9 959.3 252.7 977.2C254.7 986.4 256.6 995.7 258.3 1005C259.1 1009.5 259.4 1014.5 260.6 1018.9C260.4 1019.7 260.5 1020.5 260.5 1021.3Z" fill="white"/>
<path d="M252.7 1102.2C252.6 1102.3 252.6 1102.5 252.5 1102.6C254 1096.1 255 1095.2 254.8 1096.6C254.6 1097.3 254.4 1097.9 254.1 1098.6C253.8 1099.7 253.2 1100.9 252.7 1102.2Z" fill="white"/>
<path d="M622.7 600.3H192.4V116.8C192.4 80.9 221.5 51.9 257.3 51.9H557.6C593.5 51.9 622.5 81 622.5 116.8V600.3H622.7Z" fill="#6FC4A2"/>
<path d="M543.8 274.2H271.4V36.5C271.4 16.3 287.8 0 307.9 0H507.2C527.4 0 543.7 16.4 543.7 36.5V274.2H543.8Z" fill="white"/>
<path d="M558.4 677.3H256.7V294.9C256.7 268.3 278.3 246.7 304.9 246.7H510.2C536.8 246.7 558.4 268.3 558.4 294.9V677.3Z" fill="white"/>
<path d="M653.3 500C656.2 505.8 657 507.2 656.7 506.5C655.6 504.4 654.5 502.3 653.4 500.2C653.3 500.1 653.3 500.1 653.3 500Z" fill="white"/>
<path d="M813.1 607.9C791.2 490.4 725.8 383.6 631.7 309.9C604.5 288.6 574.5 270.7 543.4 255.6C516.8 242.7 479.7 259.5 470 286.9C459.2 317.4 472.9 346.5 501.3 360.3C505.1 362.1 508.8 364 512.5 365.9C514.1 366.7 517.4 368.8 519.3 370C518.2 369.3 516.4 368.1 513.7 366.3C520.7 370.9 528.1 374.8 535.1 379.4C548.2 388 560.9 397.3 573 407.3C579.5 412.6 585.8 418.1 591.9 423.8C592.1 424 592.4 424.2 592.6 424.4C592.7 424.5 592.8 424.6 592.8 424.6C595.7 427.6 598.7 430.6 601.6 433.6C612.4 445 622.6 457 632.1 469.5C637.2 476.2 642.1 483 646.8 489.9C648.9 492.9 650.9 496 652.8 499.1C652.9 499.3 653.1 499.6 653.3 499.9C653.1 499.5 652.9 499.1 652.7 498.6C652.9 499.1 653.2 499.6 653.5 500.1C654.8 502.3 656.5 505.6 656.8 506.4C663.3 518.6 670.2 530.5 675.9 543.2C682.3 557.5 688 572.2 692.8 587.1C693.2 588.4 693.8 590.5 694.2 592.5C693.9 591.2 693.5 589.6 693.1 587.6C694 591.7 695.3 595.7 696.3 599.7C698.3 607.8 700 616 701.6 624.3C707 653.3 734.9 677.8 765.7 671.9C794.6 666.3 818.9 639 813.1 607.9Z" fill="white"/>
<path d="M694.1 592.6C695.1 596.5 695.7 599.6 694.1 592.6V592.6Z" fill="white"/>
<path d="M519.3 370.1C521 371.2 521.6 371.6 519.3 370.1V370.1Z" fill="white"/>
<path d="M160.7 500C157.8 505.8 157 507.2 157.3 506.5C158.4 504.4 159.5 502.3 160.6 500.2C160.6 500.1 160.7 500.1 160.7 500Z" fill="white"/>
<path d="M0.899942 607.9C22.7999 490.4 88.1999 383.6 182.3 309.9C209.5 288.6 239.5 270.7 270.6 255.6C297.2 242.7 334.3 259.5 344 286.9C354.8 317.4 341.1 346.5 312.7 360.3C308.9 362.1 305.2 364 301.5 365.9C299.9 366.7 296.6 368.8 294.7 370C295.8 369.3 297.6 368.1 300.3 366.3C293.3 370.9 285.9 374.8 278.9 379.4C265.8 388 253.1 397.3 241 407.3C234.5 412.6 228.2 418.1 222.1 423.8C221.9 424 221.6 424.2 221.4 424.4C221.3 424.5 221.2 424.6 221.2 424.6C218.3 427.6 215.3 430.6 212.4 433.6C201.6 445 191.4 457 181.9 469.5C176.8 476.2 171.9 483 167.2 489.9C165.1 492.9 163.1 496 161.2 499.1C161.1 499.3 160.9 499.6 160.7 499.9C160.9 499.5 161.1 499.1 161.3 498.6C161.1 499.1 160.8 499.6 160.5 500.1C159.2 502.3 157.5 505.6 157.2 506.4C150.7 518.6 143.8 530.5 138.1 543.2C131.7 557.5 126 572.2 121.2 587.1C120.8 588.4 120.2 590.5 119.8 592.5C120.1 591.2 120.5 589.6 120.9 587.6C120 591.7 118.7 595.7 117.7 599.7C115.7 607.8 114 616 112.4 624.3C107 653.3 79.0999 677.8 48.2999 671.9C19.2999 666.3 -4.90006 639 0.899942 607.9Z" fill="white"/>
<path d="M119.9 592.6C118.3 599.6 118.9 596.5 119.9 592.6V592.6Z" fill="white"/>
<path d="M294.7 370.1C292.3 371.6 293 371.2 294.7 370.1V370.1Z" fill="white"/>
<path d="M407.6 304.9C470.34 304.9 521.2 254.04 521.2 191.3C521.2 128.56 470.34 77.7 407.6 77.7C344.86 77.7 294 128.56 294 191.3C294 254.04 344.86 304.9 407.6 304.9Z" fill="#121112"/>
<path d="M471.4 172.6C471.4 172.6 471.5 172.5 471.5 172.4C471.5 172.2 471.4 172.1 471.3 171.9C471.3 172.7 471.4 173.5 471.5 174C471.6 173.8 471.7 173.5 471.7 173.3C471.7 173.2 471.6 173.1 471.6 173C471.5 172.9 471.5 172.8 471.4 172.6Z" fill="#6FC4A2"/>
<path d="M473.1 172.4C473.1 172.2 473 171.9 473 171.7C473 172 473 172.2 473.1 172.4Z" fill="#6FC4A2"/>
<path d="M471.1 166.9C471.1 167.1 471.1 167.2 471.1 167.4C471.2 167.9 471.2 168.5 471.4 168.8C471.6 168.8 471.6 168.4 471.9 168.4C471.9 169.6 471.8 171.7 471.5 172.4C471.6 172.6 471.6 172.8 471.6 172.9C472 173.1 472.2 171 472.5 170C471.9 167.5 471.2 165.1 471.2 166C471.2 165.6 471.3 165 471.2 164.7C471.1 164.9 471 165.1 471 165.4C471 165.8 471.1 166.2 471.1 166.5V166.9Z" fill="#6FC4A2"/>
<path d="M469.9 167.7C469.6 167.1 469.4 166.9 469.3 167.6C469.5 167.9 469.7 167.9 469.9 167.7Z" fill="#6FC4A2"/>
<path d="M471.4 172.6C471.5 172.8 471.6 172.9 471.6 172.9C471.6 172.8 471.5 172.6 471.5 172.4C471.4 172.5 471.4 172.6 471.4 172.6Z" fill="#6FC4A2"/>
<path d="M473.6 173.9C473.5 174 473.4 173.7 473.3 173.2C473.4 174.2 473.6 174.6 473.6 173.9Z" fill="#6FC4A2"/>
<path d="M298 208.6C298.5 209.2 299 209.8 299.5 210.4C300 211 300.5 211.5 301 212.1C301.5 212.6 302 213.1 302.5 213.5C303.3 215.8 304.5 215.6 306 217.9C307.1 221.6 308.7 224.1 309.7 225.1C310.7 226.2 311.2 226 310.3 224.2C314.4 228.5 318.6 232.7 322.8 235.9C324.8 237.3 326.9 238.5 329.1 239.7C331 240.6 331.7 241.6 332.3 242.7C337.1 245.1 335.4 244.9 340.4 247.6C340.6 247.9 341.6 248.4 342.9 248.9C344.2 249.4 346 249.8 347.7 250.3C349.5 250.7 351.2 251 352.6 251.3C354 251.5 355.1 251.7 355.5 251.9L354.6 251.8C355.4 252 356.1 252.3 356.8 252.6C357.5 252.8 358.2 253.1 358.9 253.3C360.2 253.8 361.5 254.3 362.8 254.8C365.4 255.8 368 256.6 371.2 256.9C375.7 257.5 380.3 257.6 384.9 257.4C389.5 257.2 394.2 256.5 398.7 255.6C403.2 254.6 407.6 253.3 411.8 251.8C416 250.2 420 248.4 423.7 246.5C423.4 245.6 420.5 248.4 419.8 247.3C424.2 245.2 428.6 243 432.8 240.5C437.1 238 441.1 235 444.8 231.6C446.3 230.6 448.1 229.3 448.9 228.9C451.4 226.8 449.8 227.2 451.5 225.5L452.4 225.8C453.3 224.3 454.2 223.4 455.2 222.6C456.2 221.8 457.2 221 458 219.6C457.8 219.3 458.5 218.3 459.2 217.3C460 217.8 461.1 214.2 461.7 214.8V214.7C462.1 214.1 462.3 213.6 462.9 213C463 212.7 463.3 211.7 463.8 210.3C464.2 209 464.7 207.2 465.1 205.6C465.5 203.9 465.9 202.2 466.2 200.8C466.4 199.4 466.6 198.4 466.6 198.1L467 197.6C467.7 195.9 467.2 194.9 466.7 195.9L467.5 193.8V194.1L468.3 192C468.5 191.6 469 191.3 469.2 192C469.2 190.7 469.5 189.3 470 188.1C469.2 189.7 468.4 191.5 467.4 193.3C466.9 194.2 466.4 195 465.9 195.9C465.3 196.7 464.8 197.5 464.3 198.3C464.4 197.6 464.8 196.6 465.3 195.7C465.7 194.7 466.1 193.7 466.4 193C466.7 192.6 467 192.1 467.4 191.5C467.7 190.9 468.1 190.2 468.4 189.4C468.7 188.7 469.1 187.9 469.4 187.1C469.7 186.3 470 185.5 470.3 184.8C470.4 184.1 469.6 183.5 470.3 182C471.1 181.4 470.6 180.3 471.3 179.1C471.4 180.6 471 182 470.7 183.5C471.6 183.4 471.9 180 472.4 178.9C472.2 178.3 472.9 175.4 472.9 173.6C473.4 174.2 473.5 173.4 473.7 172.5C473.7 172.3 473.6 172 473.6 171.8C473.7 172 473.7 172.3 473.7 172.5C473.8 172 473.9 171.5 474.1 171.2C474.3 170 474 169.1 473.7 169.6C473.5 169.5 473.4 169.7 473.2 170C473.1 169.6 473.1 169.3 473 168.9C472.4 166.3 471.9 163.8 471.8 164.4C471.7 164.8 471.6 164.8 471.5 164.7C471.4 164.5 471.4 164.5 471.3 164.5C471.1 164.3 470.9 164.2 470.9 164.7L471.1 165.2C470.9 167.8 469.8 166.7 468.7 165.7C467.5 164.6 466.3 163.6 466.1 166.5C466.6 165.3 466.9 165.5 467 166.3C467.1 167.2 467.2 168.7 467.1 170C466.7 170.2 466.1 171.4 465.7 173.2C465.6 174.8 466 174.2 466.2 174.5C465.9 175.4 465.4 177.1 464.9 176.8C465.4 178.2 464.2 178.7 464.1 180.3C464.2 181.7 464.4 180.3 464.5 181.3C464 183.3 463.3 186 462.7 187.5C462.3 187.8 461.5 188.6 461 188.6C461.1 188.2 461.2 187.8 461.3 187.4C461.5 187.6 461.6 187.5 461.9 186.3C461.8 186.4 461.7 186.4 461.6 186.4C463.5 179.3 464.6 171.9 464.6 164.2C464.6 153.9 462.8 144.1 459.4 135C459.5 135.2 459.6 135.4 459.7 135.5C460.5 137.1 461.4 138.5 462.1 139.7C462.8 140.9 463.5 141.8 464.2 142.4C465.3 146.1 466.1 148.8 466.8 151.4C467.1 152.7 467.5 154 467.8 155.5C468.1 157 468.4 158.6 468.6 160.5C469.1 159.5 469.4 161.3 469.7 163C469.9 163.8 470 164.6 470.1 164.9C470.2 165.2 470.4 165.1 470.6 164.2C471.8 158.9 470.7 158.7 471.3 154.1L471 154.3C470.6 143.8 468.1 133.2 463.8 123.3C459.5 113.4 453.2 104.3 445.5 96.5C439.9 91.7 433.9 87.1 427.3 83.2L424.8 81.8L422.2 80.5C420.5 79.6 418.7 78.8 417 78C416.9 77.9 416.8 77.9 416.6 77.9C413.8 77.7 411 77.6 408.1 77.6C345.3 77.6 294.5 128.5 294.5 191.2C294.5 194.9 294.7 198.6 295 202.2C295.7 203.8 296.4 205.3 297.1 206.7C297 207.4 297.5 208 298 208.6ZM471.2 164.7C471.3 165 471.2 165.6 471.2 166C471.2 165.1 472 167.5 472.5 170C472.1 171 472 173.1 471.6 172.9C471.6 173 471.7 173.2 471.7 173.2C471.6 173.4 471.6 173.7 471.5 173.9C471.4 173.4 471.3 172.6 471.3 171.8C471.4 172 471.4 172.2 471.5 172.3C471.9 171.7 471.9 169.5 471.9 168.3C471.6 168.3 471.5 168.7 471.4 168.7C471.3 168.3 471.2 167.8 471.1 167.3C471.1 167.1 471.1 167 471.1 166.8L471.2 166.5C471.1 166.1 471.1 165.7 471.1 165.4C471 165.2 471.1 164.9 471.2 164.7ZM469.9 167.7C469.7 167.8 469.5 167.8 469.3 167.6C469.4 166.9 469.6 167.1 469.9 167.7Z" fill="#6FC4A2"/>
<path d="M473.2 173.2C473.1 173 473.1 172.7 473 172.4C473.1 172.7 473.2 173 473.2 173.2Z" fill="#6FC4A2"/>
</g>
<defs>
<clipPath id="clip0_53_25">
<rect width="814" height="1182.4" fill="white"/>
</clipPath>
</defs>
</svg>
